REM DIRINDEX 1\2,1\3,1\4,1\5
REM DIRNAME folder01,folder02,folder03,folder04,folder05
TITLE ""
FILE "P1Q_t_0893-0902.mp3" MP3
  TRACK 01 AUDIO
    TITLE "3:cjc005_3584"
    INDEX 01 00:00:00
  TRACK 02 AUDIO
    TITLE "0:"
    INDEX 01 00:01:17
  TRACK 03 AUDIO
    TITLE "4:cjc005_3585"
    INDEX 01 00:01:46
  TRACK 04 AUDIO
    TITLE "0:"
    INDEX 01 00:03:08
  TRACK 05 AUDIO
    TITLE "5:cjc005_3586"
    INDEX 01 00:03:31
  TRACK 06 AUDIO
    TITLE "0:"
    INDEX 01 00:07:29
  TRACK 07 AUDIO
    TITLE "3:cjc005_3587"
    INDEX 01 00:08:09
  TRACK 08 AUDIO
    TITLE "0:"
    INDEX 01 00:09:10
  TRACK 09 AUDIO
    TITLE "4:cjc005_3588"
    INDEX 01 00:09:38
  TRACK 10 AUDIO
    TITLE "0:"
    INDEX 01 00:10:68
  TRACK 11 AUDIO
    TITLE "5:cjc005_3589"
    INDEX 01 00:11:21
  TRACK 12 AUDIO
    TITLE "0:"
    INDEX 01 00:14:70
  TRACK 13 AUDIO
    TITLE "3:cjc005_3590"
    INDEX 01 00:15:46
  TRACK 14 AUDIO
    TITLE "0:"
    INDEX 01 00:16:49
  TRACK 15 AUDIO
    TITLE "4:cjc005_3591"
    INDEX 01 00:17:04
  TRACK 16 AUDIO
    TITLE "0:"
    INDEX 01 00:18:25
  TRACK 17 AUDIO
    TITLE "5:cjc005_3592"
    INDEX 01 00:18:52
  TRACK 18 AUDIO
    TITLE "0:"
    INDEX 01 00:22:40
  TRACK 19 AUDIO
    TITLE "3:cjc005_3593"
    INDEX 01 00:23:16
  TRACK 20 AUDIO
    TITLE "0:"
    INDEX 01 00:24:41
  TRACK 21 AUDIO
    TITLE "4:cjc005_3594"
    INDEX 01 00:24:67
  TRACK 22 AUDIO
    TITLE "0:"
    INDEX 01 00:26:32
  TRACK 23 AUDIO
    TITLE "5:cjc005_3595"
    INDEX 01 00:26:54
  TRACK 24 AUDIO
    TITLE "0:"
    INDEX 01 00:31:10
  TRACK 25 AUDIO
    TITLE "3:cjc005_3596"
    INDEX 01 00:31:63
  TRACK 26 AUDIO
    TITLE "0:"
    INDEX 01 00:33:05
  TRACK 27 AUDIO
    TITLE "4:cjc005_3597"
    INDEX 01 00:33:30
  TRACK 28 AUDIO
    TITLE "0:"
    INDEX 01 00:35:19
  TRACK 29 AUDIO
    TITLE "5:cjc005_3598"
    INDEX 01 00:35:47
  TRACK 30 AUDIO
    TITLE "0:"
    INDEX 01 00:39:17
  TRACK 31 AUDIO
    TITLE "3:cjc005_3599"
    INDEX 01 00:39:60
  TRACK 32 AUDIO
    TITLE "0:"
    INDEX 01 00:41:16
  TRACK 33 AUDIO
    TITLE "4:cjc005_3600"
    INDEX 01 00:41:44
  TRACK 34 AUDIO
    TITLE "0:"
    INDEX 01 00:43:01
  TRACK 35 AUDIO
    TITLE "5:cjc005_3601"
    INDEX 01 00:43:27
  TRACK 36 AUDIO
    TITLE "0:"
    INDEX 01 00:48:16
  TRACK 37 AUDIO
    TITLE "3:cjc005_3602"
    INDEX 01 00:48:69
  TRACK 38 AUDIO
    TITLE "0:"
    INDEX 01 00:50:23
  TRACK 39 AUDIO
    TITLE "4:cjc005_3603"
    INDEX 01 00:50:42
  TRACK 40 AUDIO
    TITLE "0:"
    INDEX 01 00:52:10
  TRACK 41 AUDIO
    TITLE "5:cjc005_3604"
    INDEX 01 00:52:34
  TRACK 42 AUDIO
    TITLE "0:"
    INDEX 01 00:57:01
  TRACK 43 AUDIO
    TITLE "3:cjc005_3605"
    INDEX 01 00:57:54
  TRACK 44 AUDIO
    TITLE "0:"
    INDEX 01 00:59:10
  TRACK 45 AUDIO
    TITLE "4:cjc005_3606"
    INDEX 01 00:59:43
  TRACK 46 AUDIO
    TITLE "0:"
    INDEX 01 01:01:07
  TRACK 47 AUDIO
    TITLE "5:cjc005_3607"
    INDEX 01 01:01:31
  TRACK 48 AUDIO
    TITLE "0:"
    INDEX 01 01:06:08
  TRACK 49 AUDIO
    TITLE "3:cjc005_3608"
    INDEX 01 01:06:57
  TRACK 50 AUDIO
    TITLE "0:"
    INDEX 01 01:08:07
  TRACK 51 AUDIO
    TITLE "4:cjc005_3609"
    INDEX 01 01:08:36
  TRACK 52 AUDIO
    TITLE "0:"
    INDEX 01 01:10:04
  TRACK 53 AUDIO
    TITLE "5:cjc005_3610"
    INDEX 01 01:10:28
  TRACK 54 AUDIO
    TITLE "0:"
    INDEX 01 01:13:73
  TRACK 55 AUDIO
    TITLE "3:cjc005_3611"
    INDEX 01 01:14:57
  TRACK 56 AUDIO
    TITLE "0:"
    INDEX 01 01:15:70
  TRACK 57 AUDIO
    TITLE "4:cjc005_3612"
    INDEX 01 01:16:24
  TRACK 58 AUDIO
    TITLE "0:"
    INDEX 01 01:17:67
  TRACK 59 AUDIO
    TITLE "5:cjc005_3613"
    INDEX 01 01:18:11
  TRACK 60 AUDIO
    TITLE "0:"
    INDEX 01 01:22:62
